<svg xmlns="http://www.w3.org/2000/svg" height="32" width="32"><g fill="#fff" paint-order="fill markers stroke"><path d="M2.134 16.905l2.133 7.918h23.467l2.133-7.918zm4 1.978h5.383v3.96H6.134zm7.176 0h5.383v3.96H13.31zm7.172 0h5.383v3.96h-5.383z"/><path d="M2.91 5.197h26.18c1.613 0 2.91 1.766 2.91 3.959v3.959c0 2.193-1.297 3.958-2.91 3.958H2.91c-1.613 0-2.91-1.765-2.91-3.958v-3.96c0-2.192 1.297-3.958 2.91-3.958zm4.265 17.647h17.648c1.612 0 2.91.883 2.91 1.98 0 1.096-1.298 1.98-2.91 1.98H7.175c-1.612 0-2.91-.884-2.91-1.98 0-1.097 1.298-1.98 2.91-1.98z"/></g></svg>