<svg xmlns="http://www.w3.org/2000/svg" viewBox="0 0 68.284 16.933" height="64" width="258.081"><g transform="translate(-2605.69 -7699.822) scale(1.64212)"><rect ry="1.323" rx="1.323" height="10.301" width="10.301" y="4688.963" x="1586.788"/><g stroke-width="2.301" color="#000" fill="#fff"><path d="M1592.788 4694.502a1.337 1.337 0 01-1.338 1.337 1.337 1.337 0 01-1.337-1.337 1.337 1.337 0 011.337-1.338 1.337 1.337 0 011.338 1.338zm.327-3.013a.81.81 0 01-.81.81.81.81 0 01-.81-.81.81.81 0 01.81-.81.81.81 0 01.81.81zm2.687 2.28a.81.81 0 01-.81.81.81.81 0 01-.81-.81.81.81 0 01.81-.81.81.81 0 01.81.81zm-1.344 2.971a.81.81 0 01-.81.81.81.81 0 01-.809-.81.81.81 0 01.81-.809.81.81 0 01.81.81zm-4.559-.366a.81.81 0 01-.81.81.81.81 0 01-.81-.81.81.81 0 01.81-.81.81.81 0 01.81.81zm-.204-4.274a.81.81 0 01-.81.81.81.81 0 01-.81-.81.81.81 0 01.81-.81.81.81 0 01.81.81z" style="isolation:auto;mix-blend-mode:normal;solid-color:#000;solid-opacity:1" overflow="visible"/><path d="M1589.747 4692.364l-.542.579.998.934.542-.58zm4.372 1.18l-1.44.298.161.778 1.44-.299zm-1.449 1.634l-.566.556.694.707.567-.556zm-2.514-.156l-.68.538.494.622.679-.538zm1.546-2.862l-.268.947.763.216.269-.947z" style="line-height:normal;font-variant-ligatures:normal;font-variant-position:normal;font-variant-caps:normal;font-variant-numeric:normal;font-variant-alternates:normal;font-feature-settings:normal;text-indent:0;text-align:start;text-decoration-line:none;text-decoration-style:solid;text-decoration-color:#000;text-transform:none;text-orientation:mixed;white-space:normal;shape-padding:0;isolation:auto;mix-blend-mode:normal;solid-color:#000;solid-opacity:1" font-weight="400" font-family="sans-serif" overflow="visible" fill-rule="evenodd"/></g></g><path d="M25.023 13.387h-.374v1.982h-.411l-.067-.66q-.212.315-.609.528-.39.206-.918.206-.984 0-1.593-.705-.61-.705-.61-1.733 0-.69.294-1.248.301-.565.823-.896.528-.337 1.211-.337.573 0 .999.161.433.154.704.397l.133.895-.456.052-.146-.676q-.199-.132-.485-.235-.279-.11-.72-.11-.8 0-1.292.55-.492.552-.492 1.425 0 .889.47 1.432.47.543 1.256.543.653 0 1.013-.352.36-.36.36-.793v-.426h-1.138v-.477h2.048zm.797-1.035q.256-.169.542-.242.287-.074.61-.074 1.167 0 1.167 1.094v1.557q0 .352.28.352.124 0 .22-.044l.007.338q-.198.11-.426.11-.58 0-.595-.66v-.016q-.154.265-.44.47-.28.206-.676.206-.323 0-.66-.198-.33-.199-.33-.72 0-.617.484-.807.492-.199 1.042-.199.147 0 .294.008.154.007.286.022v-.294q0-.352-.154-.573-.147-.22-.587-.22-.36 0-.632.132l-.125.565-.425-.05zm1.805 1.791v-.25q-.14-.007-.293-.021-.155-.015-.316-.015-.367 0-.668.117-.294.11-.294.492 0 .316.198.434.198.117.411.117.338 0 .632-.235.3-.235.33-.639zm3.829.345q-.133.955-1.036.955-.492 0-.756-.28-.257-.278-.257-.755v-1.895h-.529v-.41h.53v-1.05h.513v1.05h1.278v.41h-1.278v1.829q0 .293.125.477.132.176.426.176.19 0 .352-.117.169-.118.242-.514zm3.231-.058q-.066.418-.419.72-.352.293-.954.293-.69 0-1.116-.433-.426-.433-.426-1.226 0-.764.404-1.256t1.094-.492q.675 0 1.028.426.352.426.36 1.006 0 .19-.045.389h-2.298q.044 1.145 1.035 1.145.39 0 .61-.183.22-.184.294-.485zm-.573-.955q.037-.367-.176-.69-.206-.323-.683-.323-.455 0-.668.301-.213.301-.264.712zm6.314-.955h-.375l-.961 2.85h-.397l-.998-2.497h-.037l-.977 2.496H36.3l-.999-2.848h-.36v-.419h1.542v.419h-.624l.683 2.063h.037l.969-2.482h.345l1.02 2.482h.037l.602-2.063h-.595v-.419h1.469zm.665-.168q.257-.169.543-.242.287-.074.61-.074 1.167 0 1.167 1.094v1.557q0 .352.28.352.124 0 .22-.044l.007.338q-.198.11-.426.11-.58 0-.595-.66v-.016q-.154.265-.44.47-.28.206-.676.206-.323 0-.66-.198-.33-.199-.33-.72 0-.617.484-.807.492-.199 1.042-.199.147 0 .294.008.154.007.286.022v-.294q0-.352-.154-.573-.147-.22-.587-.22-.36 0-.632.132l-.125.565-.425-.05zm1.806 1.791v-.25q-.14-.007-.293-.021-.155-.015-.316-.015-.367 0-.668.117-.294.11-.294.492 0 .316.198.434.199.117.411.117.338 0 .632-.235.3-.235.33-.639zm4.669-1.623h-.389l-1.152 2.85-.441 1.145h.558v.418h-1.66v-.418h.61l.426-1.153-1.19-2.841h-.389v-.419h1.513v.419h-.573l.918 2.195h.044l.815-2.195h-.529v-.419h1.44z" aria-label="Gateway" font-weight="400" font-size="7.342" font-family="sans-serif" letter-spacing="0" word-spacing="0" fill="#fff"/><g style="line-height:0%"><path style="line-height:1.25;-inkscape-font-specification:'Zilla Slab Semi-Bold';text-align:start" d="M29.051 2.777h-.52l-1.734 5.44h-.804l-1.558-4.49h-.049l-1.51 4.49h-.813l-1.842-5.44h-.55v-.931h2.422v.931h-.706l1.098 3.646h.049l1.264-3.646h-.559v-.931h2.411v.931h-.52l1.265 3.695h.05l.999-3.695h-.784v-.931h2.391zm3.971 4.097q-.06.578-.569 1.01-.51.43-1.401.43-.96 0-1.578-.558-.618-.569-.618-1.666 0-1.01.559-1.686.568-.676 1.578-.676.911 0 1.44.549.54.539.55 1.372 0 .274-.06.588h-2.97q.09 1.235 1.177 1.235.51 0 .725-.245.226-.245.294-.52zM31.904 5.59q.04-.392-.186-.735-.216-.353-.735-.353-.47 0-.715.314-.246.313-.304.774zm6.444.323q0 .931-.49 1.666-.49.735-1.509.735-1.039 0-1.46-.784-.02.118-.05.343-.029.226-.048.343h-1.04q.06-.323.109-.656.049-.343.049-.667V2.277h-.657v-.803h1.696v3.214q.196-.392.548-.676.363-.284.97-.284.834 0 1.353.578.53.568.53 1.607zm-1.087.088q0-.695-.314-1.058-.314-.372-.804-.372-.558 0-.872.411-.314.412-.323.892v.314q0 .539.313.921.324.372.843.372.549 0 .853-.401.304-.402.304-1.079zm6.978-2.077l-.941.078-.196-1.225h-1.245v4.508h1.068v.931H39.74v-.93h1.03v-4.51h-1.255l-.196 1.225-.931-.078.196-2.078h5.459zm5.711 4.292h-2.363v-.803h.657V5.688q0-.627-.235-.882-.235-.265-.637-.265-.48 0-.765.314-.284.313-.304.764v1.794h.647v.803h-2.352v-.803h.657V2.277h-.657v-.803h1.705V4.54q.451-.813 1.46-.813.638 0 1.079.382.45.382.45 1.196v2.107h.657zm1.021-5.312V1.748h1.069v1.156zm1.755 5.312h-2.353v-.803h.657V4.629h-.696v-.813h1.735v3.597h.657zm5.831 0h-2.352v-.803h.646V5.688q0-.627-.225-.882-.225-.265-.627-.265-.5 0-.794.324-.284.323-.294.793v1.755h.657v.803h-2.362v-.803h.656V4.629h-.686v-.813h1.735v.715q.46-.803 1.46-.803.627 0 1.078.382.451.382.451 1.196v2.107h.657zm5.458-3.586h-.637v3.42q0 1.049-.588 1.695-.578.647-1.735.647-.686 0-1.284-.294-.597-.294-.842-1.01l.813-.44q.412.901 1.333.901.549 0 .902-.392.352-.392.352-1.117v-.657q-.186.353-.539.608-.343.245-.95.245-.775 0-1.343-.539-.559-.549-.559-1.588 0-.94.5-1.656.51-.725 1.47-.725 1 0 1.421.774v-.686h1.686zM62.33 6.12v-.354q0-.549-.313-.872-.314-.323-.784-.323-.55 0-.843.401-.294.392-.294 1.069 0 .696.294 1.029.294.323.745.323.558 0 .872-.392.323-.392.323-.882zm5.954.783q0 .686-.569 1.049-.558.362-1.43.362-.47 0-.951-.107-.47-.108-.853-.324l.157-1.137.823.079-.01.568q.187.079.393.108.215.03.382.03.402 0 .696-.138.303-.147.303-.431 0-.274-.274-.392-.265-.118-.666-.176-.402-.07-.804-.177-.402-.118-.676-.372-.265-.265-.265-.784 0-.765.578-1.05.588-.283 1.235-.283.853 0 1.608.402l.107 1.087-.823.098-.088-.656q-.382-.147-.774-.147-.304 0-.52.127-.206.118-.206.382 0 .275.265.383.265.107.657.176.392.059.784.176.392.108.656.373.265.255.265.774z" aria-label="WebThings" font-weight="600" font-size="9.801" font-family="Zilla Slab" letter-spacing="0" word-spacing="0" fill="#fff"/></g></svg>