<svg xmlns="http://www.w3.org/2000/svg" viewBox="0 0 83.046 8.467" height="32" width="313.874"><g style="line-height:0%" aria-label="WebThings Gateway" font-weight="400" font-size="1.999" font-family="sans-serif" letter-spacing="0" word-spacing="0" fill="#fff" stroke-width=".179"><path style="line-height:1.25;-inkscape-font-specification:'Zilla Slab Semi-Bold';text-align:start" d="M8.904 1.237h-.493L6.764 6.401h-.763L4.521 2.14h-.046L3.042 6.4H2.27L.521 1.237H0V.354h2.298v.883h-.67L2.67 4.7h.047l1.2-3.462h-.53V.354h2.288v.883h-.493l1.2 3.508h.047l.95-3.508h-.745V.354h2.27zm3.769 3.89q-.056.548-.54.958-.483.41-1.33.41-.912 0-1.498-.531-.586-.54-.586-1.582 0-.958.53-1.6.54-.642 1.498-.642.865 0 1.368.521.512.512.52 1.303 0 .26-.055.558H9.761q.084 1.172 1.116 1.172.484 0 .689-.233.214-.232.28-.493zm-1.06-1.22q.037-.371-.177-.697-.205-.335-.698-.335-.447 0-.68.298-.232.297-.288.735zm6.117.308q0 .884-.465 1.581-.465.698-1.433.698-.986 0-1.386-.744-.019.112-.047.326-.028.214-.046.325h-.987q.056-.307.103-.623.046-.326.046-.633V.763h-.623V0h1.61v3.052q.186-.372.52-.642.345-.27.922-.27.79 0 1.284.549.502.54.502 1.526zm-1.033.083q0-.66-.297-1.004-.298-.354-.763-.354-.53 0-.828.39-.298.392-.308.848v.297q0 .512.298.875.307.353.8.353.521 0 .81-.381.288-.382.288-1.024zm6.625-1.972l-.893.074-.187-1.163h-1.181v4.28h1.014v.884h-3.024v-.884h.977v-4.28h-1.19L18.65 2.4l-.884-.074.186-1.972h5.183zm5.421 4.075H26.5v-.763h.623V4.001q0-.596-.223-.838-.224-.25-.605-.25-.456 0-.726.297-.27.298-.288.726v1.702h.614v.763h-2.233v-.763h.623V.763h-.623V0h1.619v2.912q.428-.772 1.386-.772.605 0 1.024.363.428.363.428 1.135v2h.623zm.97-5.043V.261h1.014v1.097zm1.665 5.043h-2.233v-.763h.624V2.996h-.66v-.772h1.646v3.414h.623zm5.536 0h-2.233v-.763h.614V4.001q0-.596-.214-.838-.214-.25-.595-.25-.475 0-.754.306-.27.307-.28.754v1.665h.624v.763h-2.242v-.763h.623V2.996h-.65v-.772h1.646v.679q.437-.763 1.386-.763.596 0 1.024.363.428.363.428 1.135v2h.623zm5.182-3.405h-.605v3.247q0 .996-.558 1.61-.55.614-1.647.614-.651 0-1.219-.28-.567-.279-.8-.958l.772-.418q.391.856 1.266.856.52 0 .856-.373.334-.372.334-1.06V5.61q-.176.335-.511.577-.326.233-.903.233-.735 0-1.274-.512-.53-.521-.53-1.507 0-.893.474-1.573.484-.688 1.395-.688.95 0 1.35.735v-.651h1.6zm-1.6 1.414v-.335q0-.52-.298-.828-.298-.307-.745-.307-.52 0-.8.382-.279.372-.279 1.014 0 .66.28.977.278.307.706.307.53 0 .828-.373.307-.372.307-.837zm5.652.744q0 .652-.54.996-.53.344-1.358.344-.446 0-.902-.102-.447-.102-.81-.307l.149-1.08.782.075-.01.54q.177.074.373.102.204.028.363.028.381 0 .66-.13.289-.14.289-.41 0-.26-.26-.372-.252-.112-.634-.167-.381-.066-.763-.168-.381-.112-.641-.353-.252-.252-.252-.745 0-.725.55-.995.557-.27 1.172-.27.809 0 1.525.381l.103 1.033-.782.093-.083-.623q-.363-.14-.736-.14-.288 0-.493.121-.195.112-.195.363 0 .26.251.363.251.102.624.167.372.056.744.168.372.102.623.353.251.242.251.735z" font-weight="600" font-size="9.304" font-family="Zilla Slab"/><path d="M54.478 3.89h-.474V6.4h-.521l-.084-.837q-.27.4-.772.67-.493.26-1.163.26-1.247 0-2.019-.893t-.772-2.196q0-.874.372-1.581.381-.717 1.042-1.136.67-.427 1.535-.427.726 0 1.265.204.55.196.894.503l.167 1.135-.577.065-.186-.856q-.251-.168-.614-.298-.353-.14-.912-.14-1.014 0-1.637.698-.624.698-.624 1.805 0 1.126.596 1.815.595.688 1.59.688.829 0 1.285-.446.456-.456.456-1.005v-.54h-1.442v-.605h2.595zm1.009-1.313q.326-.214.689-.307.362-.093.772-.093 1.48 0 1.48 1.386v1.973q0 .446.353.446.158 0 .279-.055l.009.428q-.251.14-.54.14-.735 0-.753-.838v-.019q-.196.335-.559.596-.353.26-.856.26-.409 0-.837-.251-.419-.251-.419-.912 0-.781.614-1.023.624-.251 1.322-.251.186 0 .372.009.195.01.363.028v-.372q0-.447-.196-.726-.186-.28-.744-.28-.456 0-.8.168l-.158.717-.54-.065zm2.289 2.27v-.316q-.177-.01-.372-.028-.196-.018-.4-.018-.466 0-.847.148-.372.14-.372.624 0 .4.251.549.251.149.521.149.428 0 .8-.298.382-.298.419-.81zm4.851.438q-.167 1.21-1.312 1.21-.623 0-.958-.354-.326-.354-.326-.959v-2.4h-.67V2.26h.67V.93h.652v1.33h1.619v.52h-1.62V5.1q0 .372.159.604.167.224.54.224.241 0 .446-.15.214-.148.307-.65zm4.095-.075q-.084.53-.53.912-.447.372-1.21.372-.875 0-1.414-.549-.54-.549-.54-1.553 0-.968.512-1.591.512-.624 1.386-.624.856 0 1.303.54.446.54.456 1.274 0 .242-.056.494h-2.912q.055 1.451 1.312 1.451.493 0 .772-.233.279-.232.372-.614zM65.996 4q.047-.464-.223-.874-.26-.41-.865-.41-.577 0-.847.382t-.335.903zm8.001-1.209h-.475l-1.218 3.61H71.8l-1.265-3.163h-.047L69.252 6.4h-.484l-1.265-3.61h-.456v-.53H69v.53h-.791l.865 2.615h.047L70.35 2.26h.437l1.293 3.145h.047l.763-2.615h-.754v-.53h1.861zm.843-.214q.326-.214.689-.307.363-.093.772-.093 1.48 0 1.48 1.386v1.973q0 .446.353.446.158 0 .279-.055l.009.428q-.251.14-.54.14-.735 0-.753-.838v-.019q-.196.335-.559.596-.353.26-.856.26-.409 0-.837-.251-.419-.251-.419-.912 0-.781.614-1.023.624-.251 1.322-.251.186 0 .372.009.195.01.363.028v-.372q0-.447-.196-.726-.186-.28-.744-.28-.456 0-.8.168l-.158.717-.54-.065zm2.289 2.27v-.316q-.177-.01-.372-.028-.196-.018-.4-.018-.465 0-.847.148-.372.14-.372.624 0 .4.251.549.251.149.521.149.428 0 .8-.298.382-.298.419-.81zm5.917-2.056h-.493l-1.461 3.61-.558 1.452h.707v.53h-2.103v-.53h.772l.54-1.461-1.507-3.6h-.493V2.26h1.916v.53h-.726l1.163 2.782h.056l1.033-2.782h-.67v-.53h1.824z"/></g></svg>