<svg xmlns="http://www.w3.org/2000/svg" height="32" width="32"><path d="M.698 4.727a.733.733 0 00-.257 1.405c.996.457 2.477.728 3.741 1.143.632.208 1.195.445 1.548.686.29.198.338.332.371.466-.08.07-.178.142-.35.239-.429.242-1.076.524-1.734.816-.658.293-1.329.596-1.883.959-.277.18-.528.375-.736.633-.21.259-.384.626-.346 1.036.035.408.249.632.44.817.19.187.407.342.65.5.484.312 1.075.62 1.657.926.58.306 1.155.609 1.56.87.203.131.364.252.449.334.08.081.058.125.035-.023.069.386-.023.583-.284.869-.266.286-.736.58-1.259.837-.522.256-1.086.481-1.569.73a3.143 3.143 0 00-.674.44c-.209.186-.447.491-.447.902a.733.733 0 001.448.175 2.13 2.13 0 01.345-.214c.379-.195.956-.427 1.545-.717s1.2-.634 1.684-1.155c.483-.52.809-1.295.654-2.132-.07-.38-.271-.592-.467-.778a4.515 4.515 0 00-.667-.506c-.495-.319-1.09-.63-1.672-.935-.582-.306-1.15-.609-1.543-.862a3.274 3.274 0 01-.335-.25c.07-.07.166-.165.335-.275.403-.264 1.03-.559 1.677-.846.646-.288 1.308-.568 1.856-.876.273-.155.52-.313.737-.525.217-.21.452-.528.433-.965-.034-.75-.529-1.326-1.085-1.706-.555-.38-1.223-.64-1.917-.868-1.387-.455-2.945-.789-3.584-1.083a.733.733 0 00-.357-.07zm9.752.62a.733.733 0 00-.234 1.423c1.068.404 2.115.558 2.792.8.338.122.567.257.692.388.104.104.138.257.167.447-.07.07-.195.155-.384.261-.43.242-1.073.524-1.731.816-.659.293-1.33.596-1.883.959-.276.18-.528.375-.737.633-.209.259-.383.626-.345 1.036.034.408.248.632.44.817.19.187.406.342.648.5.485.312 1.076.62 1.658.926.582.306 1.155.609 1.56.87.203.131.364.252.45.334.08.081.057.125.034-.023.07.385-.023.583-.284.869-.266.286-.736.58-1.259.837-.521.256-1.085.481-1.569.73a3.157 3.157 0 00-.676.44c-.21.186-.445.491-.445.902 0 .39.21.7.414.906.203.207.43.356.676.498.49.285 1.065.534 1.607.803.544.268 1.05.56 1.353.834.304.275.381.439.357.663 0 .046-.069.173-.406.377-.336.203-.86.417-1.411.642-.553.226-1.138.464-1.653.81-.515.346-1.01.863-1.091 1.587a.734.734 0 101.458.163c.011-.15.118-.308.451-.532.334-.224.847-.448 1.39-.67.542-.222 1.112-.441 1.616-.746.504-.306 1.028-.763 1.104-1.473.081-.783-.332-1.456-.83-1.907-.5-.452-1.105-.774-1.688-1.063-.583-.288-1.148-.539-1.52-.755-.081-.046-.093-.069-.155-.115.046-.035.058-.046.121-.07.38-.194.956-.427 1.545-.716.589-.29 1.2-.634 1.685-1.155.483-.52.809-1.295.653-2.132-.07-.38-.272-.593-.469-.778a4.432 4.432 0 00-.665-.506c-.495-.319-1.09-.63-1.673-.935-.581-.306-1.15-.609-1.542-.862a3.235 3.235 0 01-.334-.25c.07-.07.165-.165.334-.275.403-.264 1.03-.559 1.677-.846.647-.288 1.309-.568 1.856-.876a3.47 3.47 0 00.738-.525c.217-.21.452-.528.433-.965-.024-.598-.256-1.138-.616-1.513-.36-.376-.807-.59-1.258-.75-.902-.324-1.896-.464-2.765-.793a.733.733 0 00-.287-.058zm6.873-.62a.733.733 0 00-.254 1.405c.996.457 2.478.728 3.741 1.143.632.208 1.194.445 1.545.686.29.198.338.332.372.466-.081.07-.177.142-.35.239-.43.242-1.074.524-1.732.816-.658.293-1.331.596-1.884.959-.277.18-.529.375-.738.633-.209.259-.383.626-.345 1.036.034.408.25.632.44.817.19.187.408.342.65.5.486.312 1.075.62 1.656.926.582.306 1.156.609 1.561.87.202.131.363.252.448.334.081.081.058.125.035-.023.07.386-.023.583-.285.869-.265.286-.736.58-1.257.837-.523.256-1.087.481-1.57.73a3.171 3.171 0 00-.675.44c-.209.186-.444.491-.444.902 0 .39.209.698.413.906.203.207.432.356.677.498.489.286 1.062.534 1.604.803.544.268 1.05.56 1.353.834.304.275.381.439.357.663 0 .046-.07.173-.404.377-.336.203-.859.417-1.41.642-.554.226-1.14.464-1.654.81-.515.346-1.01.863-1.091 1.587a.733.733 0 101.456.163c.011-.15.12-.308.454-.532.333-.224.846-.448 1.388-.67.543-.222 1.113-.441 1.617-.746.504-.306 1.026-.762 1.104-1.473.08-.783-.332-1.457-.83-1.907-.5-.452-1.104-.774-1.687-1.063-.583-.288-1.15-.539-1.52-.755-.082-.046-.093-.069-.156-.115.047-.035.058-.046.122-.07.378-.194.953-.427 1.542-.716.589-.29 1.202-.634 1.685-1.155.483-.52.809-1.295.654-2.132-.07-.38-.271-.591-.467-.778a4.455 4.455 0 00-.668-.506c-.494-.319-1.088-.63-1.67-.935-.582-.306-1.15-.609-1.543-.862a3.314 3.314 0 01-.336-.25c.07-.07.165-.165.334-.275.403-.264 1.03-.559 1.677-.846.647-.288 1.31-.568 1.858-.876a3.48 3.48 0 00.738-.525c.217-.21.452-.528.433-.965-.035-.75-.531-1.326-1.087-1.706-.556-.38-1.22-.641-1.915-.868-1.388-.455-2.946-.789-3.587-1.083a.733.733 0 00-.357-.07zm9.754.62a.733.733 0 00-.232 1.423c1.067.404 2.113.558 2.79.8.337.122.567.257.693.388.104.104.135.257.165.447-.07.07-.193.155-.38.261-.43.242-1.075.524-1.733.816-.658.293-1.33.596-1.885.959-.277.18-.529.375-.738.633-.209.259-.383.626-.345 1.036.035.408.25.632.44.817.192.187.41.342.652.5.485.312 1.073.62 1.655.926.582.306 1.155.609 1.56.87.203.131.363.252.449.334.092.081.069.125.034-.023.07.385-.023.583-.284.869-.265.286-.735.58-1.258.837-.523.256-1.087.481-1.57.73a3.186 3.186 0 00-.677.44c-.209.186-.443.491-.443.902a.733.733 0 001.448.175c.057-.046.168-.123.344-.214.378-.195.956-.427 1.544-.717.59-.29 1.205-.634 1.687-1.155.484-.52.807-1.295.652-2.132-.069-.38-.27-.592-.467-.778a4.374 4.374 0 00-.665-.506c-.494-.319-1.091-.63-1.673-.935-.582-.306-1.15-.609-1.543-.862a3.453 3.453 0 01-.336-.25c.07-.07.166-.165.334-.275.403-.264 1.032-.559 1.678-.846.646-.288 1.311-.568 1.858-.876.274-.155.52-.312.737-.525.217-.21.451-.528.43-.965-.022-.598-.254-1.138-.615-1.513-.36-.376-.807-.59-1.258-.75-.902-.324-1.896-.464-2.764-.793a.733.733 0 00-.286-.058z" style="line-height:normal;font-variant-ligatures:normal;font-variant-position:normal;font-variant-caps:normal;font-variant-numeric:normal;font-variant-alternates:normal;font-feature-settings:normal;text-indent:0;text-align:start;text-decoration-line:none;text-decoration-style:solid;text-decoration-color:#000;text-transform:none;text-orientation:mixed;white-space:normal;shape-padding:0;isolation:auto;mix-blend-mode:normal;solid-color:#000;solid-opacity:1" overflow="visible" color="#000" font-weight="400" font-family="sans-serif" fill="#fff"/></svg>