<svg xmlns="http://www.w3.org/2000/svg" width="32" height="32"><path d="M2.91 4.98h26.18A2.903 2.903 0 0132 7.889v2.909a2.903 2.903 0 01-2.91 2.909H2.91A2.903 2.903 0 010 10.797V7.89a2.903 2.903 0 012.91-2.91z" fill="#fff" paint-order="fill markers stroke"/><path d="M2.133 13.708l2.133 5.817h23.467l2.134-5.817zm3.735 1.454h3.2v2.91h-3.2zm4.266 0h3.2v2.91h-3.2zm4.267 0h3.2v2.91h-3.2zm4.266 0h3.2v2.91h-3.2zm4.267 0h3.2v2.91h-3.2z" fill="#fff" paint-order="fill markers stroke"/><path d="M7.176 18.07h17.648c1.612 0 2.91.649 2.91 1.455s-1.298 1.455-2.91 1.455H7.176c-1.612 0-2.91-.65-2.91-1.455 0-.806 1.298-1.455 2.91-1.455z" fill="#f9f9f9" paint-order="fill markers stroke"/><path style="line-height:normal;font-variant-ligatures:normal;font-variant-position:normal;font-variant-caps:normal;font-variant-numeric:normal;font-variant-alternates:normal;font-feature-settings:normal;text-indent:0;text-align:start;text-decoration-line:none;text-decoration-style:solid;text-decoration-color:#000;text-transform:none;text-orientation:mixed;white-space:normal;shape-padding:0;isolation:auto;mix-blend-mode:normal;solid-color:#000;solid-opacity:1" d="M8.93 21.58a.339.339 0 00-.119.649c.46.21 1.145.336 1.729.528.291.096.552.205.714.316.135.092.157.154.172.216a.945.945 0 01-.162.11c-.198.112-.497.242-.8.377-.305.136-.615.275-.87.443a1.41 1.41 0 00-.34.293.673.673 0 00-.16.478c.016.188.114.292.203.378.088.086.188.158.3.23.224.145.497.287.766.428.268.142.533.281.72.402a1.5 1.5 0 01.208.155c.037.037.026.057.016-.011.032.178-.011.27-.132.401-.122.132-.34.268-.581.387-.241.118-.502.222-.725.337a1.452 1.452 0 00-.311.203.567.567 0 00-.207.417.339.339 0 00.67.081.983.983 0 01.159-.1c.175-.09.441-.196.713-.33.272-.134.555-.293.778-.534a1.15 1.15 0 00.302-.985.624.624 0 00-.215-.36 2.086 2.086 0 00-.309-.233c-.228-.147-.503-.29-.772-.432a10.421 10.421 0 01-.713-.398 1.512 1.512 0 01-.155-.115.884.884 0 01.155-.127c.186-.122.476-.258.775-.391.298-.133.604-.263.857-.405.127-.071.24-.145.34-.242a.584.584 0 00.2-.446c-.015-.347-.243-.613-.5-.788-.257-.176-.565-.296-.886-.401-.64-.21-1.36-.365-1.656-.5a.339.339 0 00-.165-.033zm4.505.286a.339.339 0 00-.108.657c.493.187.977.258 1.29.37a.845.845 0 01.32.18c.047.047.063.118.076.206a.88.88 0 01-.177.12c-.198.112-.496.242-.8.377-.304.136-.614.275-.87.443a1.43 1.43 0 00-.34.293.673.673 0 00-.16.478c.017.188.115.292.204.378.088.086.187.158.3.23.223.145.496.287.765.428.27.142.534.281.72.402a1.5 1.5 0 01.208.155c.038.037.027.057.016-.011.032.178-.01.27-.13.401-.124.132-.34.268-.582.387-.241.118-.502.222-.725.337a1.458 1.458 0 00-.313.203.566.566 0 00-.205.417c0 .18.097.323.191.419.094.095.199.164.313.23.226.131.491.246.742.37s.485.259.625.386.176.202.165.306c0 .021-.032.08-.188.174a5.28 5.28 0 01-.652.297c-.255.104-.526.214-.763.374-.238.16-.467.399-.504.733a.339.339 0 10.673.075c.006-.07.055-.142.209-.246.154-.103.39-.207.641-.309.251-.102.514-.204.747-.345.233-.14.475-.352.51-.68.038-.362-.153-.673-.384-.881-.23-.209-.51-.357-.779-.49-.27-.134-.53-.25-.702-.35-.038-.02-.043-.032-.072-.053.022-.016.027-.021.056-.032.175-.09.442-.197.714-.331.272-.134.555-.293.778-.533.224-.24.374-.599.302-.985a.623.623 0 00-.217-.36 2.047 2.047 0 00-.307-.234c-.229-.147-.504-.29-.773-.432a10.396 10.396 0 01-.712-.397 1.494 1.494 0 01-.154-.116.883.883 0 01.154-.127c.186-.122.476-.258.775-.391.298-.133.604-.262.857-.405.126-.071.24-.144.34-.242a.58.58 0 00.2-.446 1.07 1.07 0 00-.284-.699 1.45 1.45 0 00-.58-.347c-.417-.149-.877-.213-1.278-.365a.339.339 0 00-.133-.027zm3.175-.286a.339.339 0 00-.117.649c.46.21 1.144.336 1.728.528.291.096.551.205.713.316.135.092.156.154.172.216a.923.923 0 01-.162.11c-.198.112-.496.242-.8.377-.304.136-.615.275-.87.443a1.422 1.422 0 00-.34.293.673.673 0 00-.16.478c.016.188.115.292.203.378.088.086.189.158.3.23.225.145.497.287.765.428.27.142.534.281.721.402.094.06.168.117.207.155.038.037.027.057.016-.011.032.178-.01.27-.131.401-.122.132-.34.268-.581.387-.242.118-.502.222-.725.337a1.465 1.465 0 00-.312.203.566.566 0 00-.205.417c0 .18.096.323.19.419.095.095.2.164.313.23.226.132.49.246.742.37.25.124.484.259.625.386.14.127.176.202.164.306 0 .021-.032.08-.186.174a5.28 5.28 0 01-.652.297c-.255.104-.526.214-.764.374s-.466.399-.504.733a.339.339 0 10.673.075c.005-.07.055-.142.21-.246.154-.103.39-.207.641-.309.25-.102.514-.204.747-.345.233-.14.474-.352.51-.68.037-.362-.154-.673-.384-.881-.23-.209-.51-.357-.78-.49-.268-.134-.53-.25-.702-.35-.037-.02-.042-.032-.071-.053.021-.016.027-.021.056-.032.175-.09.44-.197.713-.331.272-.134.555-.293.778-.533.223-.24.374-.599.302-.985a.624.624 0 00-.216-.36 2.058 2.058 0 00-.308-.234c-.228-.147-.503-.29-.772-.432a10.396 10.396 0 01-.712-.397 1.53 1.53 0 01-.156-.116.924.924 0 01.154-.127c.187-.122.477-.258.775-.391.3-.133.606-.262.859-.405.126-.071.24-.144.34-.242a.58.58 0 00.2-.446c-.016-.346-.245-.613-.502-.788-.257-.175-.563-.296-.884-.401-.641-.21-1.361-.364-1.657-.5a.339.339 0 00-.165-.032zm4.505.286a.339.339 0 00-.107.657c.493.187.976.258 1.289.37a.849.849 0 01.32.18c.048.047.063.118.077.206a.864.864 0 01-.176.12c-.199.112-.496.242-.8.377-.304.136-.615.275-.871.443a1.422 1.422 0 00-.341.293.673.673 0 00-.16.478c.016.188.116.292.204.378.088.086.189.158.3.23.225.145.496.287.765.428.269.142.534.281.721.402.094.06.168.117.207.155.043.037.032.057.016-.011.032.178-.01.27-.131.401-.123.132-.34.268-.581.387-.242.118-.502.222-.726.337a1.472 1.472 0 00-.312.203.566.566 0 00-.205.417.339.339 0 00.669.081.996.996 0 01.159-.1c.175-.09.441-.196.713-.33.273-.134.557-.293.78-.534.223-.24.372-.598.3-.985a.622.622 0 00-.215-.36 2.02 2.02 0 00-.307-.233c-.229-.147-.504-.29-.773-.432a10.396 10.396 0 01-.713-.398 1.595 1.595 0 01-.155-.115c.032-.032.076-.077.154-.127.186-.122.477-.258.775-.391.299-.133.606-.263.859-.405.126-.071.24-.144.34-.242a.58.58 0 00.199-.446 1.07 1.07 0 00-.284-.7 1.45 1.45 0 00-.582-.346c-.416-.15-.875-.214-1.276-.366a.339.339 0 00-.133-.026z" overflow="visible" color="#000" font-weight="400" font-family="sans-serif" fill="#fff"/></svg>