<svg xmlns="http://www.w3.org/2000/svg" width="32" height="32"><path d="M2.91 4.98h26.18A2.903 2.903 0 0132 7.889v2.909a2.903 2.903 0 01-2.91 2.909H2.91A2.903 2.903 0 010 10.797V7.89a2.903 2.903 0 012.91-2.91z" fill="#fff" paint-order="fill markers stroke"/><path d="M2.133 13.708l2.133 5.817h23.467l2.134-5.817zm3.735 1.454h3.2v2.91h-3.2zm4.266 0h3.2v2.91h-3.2zm4.267 0h3.2v2.91h-3.2zm4.266 0h3.2v2.91h-3.2zm4.267 0h3.2v2.91h-3.2z" fill="#fff" paint-order="fill markers stroke"/><path d="M7.176 18.07h17.648c1.612 0 2.91.649 2.91 1.455s-1.298 1.455-2.91 1.455H7.176c-1.612 0-2.91-.65-2.91-1.455 0-.806 1.298-1.455 2.91-1.455z" fill="#f9f9f9" paint-order="fill markers stroke"/></svg>